<?xml version="1.0" encoding="utf-8"?>
<!-- Generator: Adobe Illustrator 18.0.0, SVG Export Plug-In . SVG Version: 6.00 Build 0)  -->
<!DOCTYPE svg PUBLIC "-//W3C//DTD SVG 1.1//EN" "http://www.w3.org/Graphics/SVG/1.1/DTD/svg11.dtd">
<svg version="1.1" id="Layer_1" xmlns="http://www.w3.org/2000/svg" xmlns:xlink="http://www.w3.org/1999/xlink" x="0px" y="0px"
	 viewBox="0 173.8 1280 453" enable-background="new 0 173.8 1280 453" xml:space="preserve">
<path fill="#F5F5F7" d="M1262.2,595.4h-174.5c-2.4,0-4.4-2-4.4-4.4V321.1c0-2.4,2-4.4,4.4-4.4h174.5c2.4,0,4.4,2,4.4,4.4v270
	C1266.5,593.5,1264.6,595.4,1262.2,595.4z M1092,586.6h165.8V325.5H1092V586.6z"/>
<path fill="#F5F5F7" d="M1242.1,325.5c-2.4,0-4.4-2-4.4-4.4v-30.8h-125.4v30.8c0,2.4-2,4.4-4.4,4.4s-4.4-2-4.4-4.4v-35.2
	c0-2.4,2-4.4,4.4-4.4h134.3c2.4,0,4.4,2,4.4,4.4v35.2C1246.4,323.5,1244.5,325.5,1242.1,325.5z"/>
<path fill="#F5F5F7" d="M1196.4,426.4h-47.1c-1.6,0-3-0.9-3.8-2.2l-23.5-40.7c-0.8-1.4-0.8-3,0-4.4l23.5-40.7
	c0.8-1.4,2.3-2.2,3.8-2.2h47.1c1.6,0,3,0.9,3.8,2.2l23.5,40.7c0.8,1.4,0.8,3,0,4.4l-23.5,40.7
	C1199.4,425.5,1197.9,426.4,1196.4,426.4z M1151.9,417.6h41.9l21-36.4l-21-36.4h-41.9l-21,36.4L1151.9,417.6z"/>
<path fill="#F5F5F7" d="M1172.8,426.4c-2.4,0-4.4-2-4.4-4.4v-81.5c0-2.4,2-4.4,4.4-4.4c2.4,0,4.4,2,4.4,4.4V422
	C1177.3,424.4,1175.3,426.4,1172.8,426.4z"/>
<path fill="#F5F5F7" d="M1219.9,385.7h-94.1c-2.4,0-4.4-2-4.4-4.4s2-4.4,4.4-4.4h94.1c2.4,0,4.4,2,4.4,4.4
	S1222.3,385.7,1219.9,385.7z"/>
<path fill="#F5F5F7" d="M1209.2,367.1h-72.7c-2.4,0-4.4-2-4.4-4.4c0-2.4,2-4.4,4.4-4.4h72.7c2.4,0,4.4,2,4.4,4.4
	C1213.6,365.1,1211.7,367.1,1209.2,367.1z"/>
<path fill="#F5F5F7" d="M1209.2,402.8h-72.7c-2.4,0-4.4-2-4.4-4.4c0-2.4,2-4.4,4.4-4.4h72.7c2.4,0,4.4,2,4.4,4.4
	C1213.7,400.8,1211.7,402.8,1209.2,402.8z"/>
<path fill="#F5F5F7" d="M1242.2,543.5h-132.5c-2.4,0-4.4-2-4.4-4.4v-61.7c0-2.4,2-4.4,4.4-4.4h132.5c2.4,0,4.4,2,4.4,4.4v61.7
	C1246.6,541.6,1244.7,543.5,1242.2,543.5z M1114.1,534.8h123.7V482h-123.7V534.8z"/>
<path fill="#F5F5F7" d="M1242.2,512.8h-132.5c-2.4,0-4.4-2-4.4-4.4c0-2.4,2-4.4,4.4-4.4h132.5c2.4,0,4.4,2,4.4,4.4
	C1246.6,510.8,1244.7,512.8,1242.2,512.8z"/>
<path fill="#F5F5F7" d="M1207.9,543.5c-2.4,0-4.4-2-4.4-4.4v-61.7c0-2.4,2-4.4,4.4-4.4s4.4,2,4.4,4.4v61.7
	C1212.4,541.6,1210.4,543.5,1207.9,543.5z"/>
<path fill="#F5F5F7" d="M1143.9,543.5c-2.4,0-4.4-2-4.4-4.4v-61.7c0-2.4,2-4.4,4.4-4.4s4.4,2,4.4,4.4v61.7
	C1148.3,541.6,1146.4,543.5,1143.9,543.5z"/>
<path fill="#F5F5F7" d="M1176,543.5c-2.4,0-4.4-2-4.4-4.4v-61.7c0-2.4,2-4.4,4.4-4.4s4.4,2,4.4,4.4v61.7
	C1180.3,541.6,1178.4,543.5,1176,543.5z"/>
<path fill="#F5F5F7" d="M1087.7,595.4H913.1c-2.4,0-4.4-2-4.4-4.4V321.1c0-2.4,2-4.4,4.4-4.4h174.5c2.4,0,4.4,2,4.4,4.4v270
	C1092,593.5,1090.1,595.4,1087.7,595.4z M917.4,586.6h165.8V325.5H917.4V586.6z"/>
<path fill="#F5F5F7" d="M1067.4,325.5c-2.4,0-4.4-2-4.4-4.4v-30.8H937.6v30.8c0,2.4-2,4.4-4.4,4.4c-2.4,0-4.4-2-4.4-4.4v-35.2
	c0-2.4,2-4.4,4.4-4.4h134.3c2.4,0,4.4,2,4.4,4.4v35.2C1071.8,323.5,1069.9,325.5,1067.4,325.5z"/>
<path fill="#F5F5F7" d="M1021.8,426.4h-47.1c-1.6,0-3-0.9-3.8-2.2l-23.5-40.7c-0.8-1.4-0.8-3,0-4.4l23.5-40.7
	c0.8-1.4,2.3-2.2,3.8-2.2h47.1c1.6,0,3,0.9,3.8,2.2l23.5,40.7c0.8,1.4,0.8,3,0,4.4l-23.5,40.7
	C1024.9,425.5,1023.4,426.4,1021.8,426.4z M977.3,417.6h41.9l21-36.4l-21-36.4h-41.9l-21,36.4L977.3,417.6z"/>
<path fill="#F5F5F7" d="M998.3,426.4c-2.4,0-4.4-2-4.4-4.4v-81.5c0-2.4,2-4.4,4.4-4.4c2.4,0,4.4,2,4.4,4.4V422
	C1002.7,424.4,1000.7,426.4,998.3,426.4z"/>
<path fill="#F5F5F7" d="M1045.4,385.7h-94.1c-2.4,0-4.4-2-4.4-4.4s2-4.4,4.4-4.4h94.1c2.4,0,4.4,2,4.4,4.4
	S1047.8,385.7,1045.4,385.7z"/>
<path fill="#F5F5F7" d="M1034.7,367.1H962c-2.4,0-4.4-2-4.4-4.4c0-2.4,2-4.4,4.4-4.4h72.7c2.4,0,4.4,2,4.4,4.4
	C1039,365.1,1037.1,367.1,1034.7,367.1z"/>
<path fill="#F5F5F7" d="M1034.7,402.8H962c-2.4,0-4.4-2-4.4-4.4c0-2.4,2-4.4,4.4-4.4h72.7c2.4,0,4.4,2,4.4,4.4
	C1039.1,400.8,1037.1,402.8,1034.7,402.8z"/>
<path fill="#F5F5F7" d="M1067.6,543.5H935.1c-2.4,0-4.4-2-4.4-4.4v-61.7c0-2.4,2-4.4,4.4-4.4h132.5c2.4,0,4.4,2,4.4,4.4v61.7
	C1072,541.6,1070,543.5,1067.6,543.5z M939.5,534.8h123.7V482H939.5V534.8z"/>
<path fill="#F5F5F7" d="M1067.6,512.8H935.1c-2.4,0-4.4-2-4.4-4.4c0-2.4,2-4.4,4.4-4.4h132.5c2.4,0,4.4,2,4.4,4.4
	C1072,510.8,1070,512.8,1067.6,512.8z"/>
<path fill="#F5F5F7" d="M1033.4,543.5c-2.4,0-4.4-2-4.4-4.4v-61.7c0-2.4,2-4.4,4.4-4.4c2.4,0,4.4,2,4.4,4.4v61.7
	C1037.8,541.6,1035.8,543.5,1033.4,543.5z"/>
<path fill="#F5F5F7" d="M969.4,543.5c-2.4,0-4.4-2-4.4-4.4v-61.7c0-2.4,2-4.4,4.4-4.4c2.4,0,4.4,2,4.4,4.4v61.7
	C973.7,541.6,971.8,543.5,969.4,543.5z"/>
<path fill="#F5F5F7" d="M1001.3,543.5c-2.4,0-4.4-2-4.4-4.4v-61.7c0-2.4,2-4.4,4.4-4.4s4.4,2,4.4,4.4v61.7
	C1005.8,541.6,1003.8,543.5,1001.3,543.5z"/>
<path fill="#F5F5F7" d="M873.9,595.4c-2.4,0-4.4-2-4.4-4.4V200.8h-462V591c0,2.4-2,4.4-4.4,4.4s-4.4-2-4.4-4.4V196.4
	c0-2.4,2-4.4,4.4-4.4H874c2.4,0,4.4,2,4.4,4.4V591C878.4,593.5,876.4,595.4,873.9,595.4L873.9,595.4z"/>
<path fill="#F5F5F7" d="M844.7,307.9H439.8c-2.4,0-4.4-2-4.4-4.4v-48.4c0-2.4,2-4.4,4.4-4.4h404.8c2.4,0,4.4,2,4.4,4.4v48.4
	C849,305.9,847.1,307.9,844.7,307.9z M444.2,299.1h396.1v-39.6H444.2V299.1L444.2,299.1z"/>
<path fill="#F5F5F7" d="M816.8,499.3H467.6c-2.4,0-4.4-2-4.4-4.4V325.5h-8.8c-2.4,0-4.4-2-4.4-4.4v-17.6c0-2.4,2-4.4,4.4-4.4
	c2.4,0,4.4,2,4.4,4.4v13.2h8.8c2.4,0,4.4,2,4.4,4.4v169.4h340.3V321.1c0-2.4,2-4.4,4.4-4.4h8.8v-13.2c0-2.4,2-4.4,4.4-4.4
	s4.4,2,4.4,4.4v17.6c0,2.4-2,4.4-4.4,4.4h-8.8v169.4C821.1,497.3,819.2,499.3,816.8,499.3z"/>
<path fill="#F5F5F7" d="M762.5,325.5c-2.4,0-4.4-2-4.4-4.4v-17.6c0-2.4,2-4.4,4.4-4.4s4.4,2,4.4,4.4v17.6
	C766.9,323.5,765,325.5,762.5,325.5z"/>
<path fill="#F5F5F7" d="M775.7,325.5h-13.2c-2.4,0-4.4-2-4.4-4.4s2-4.4,4.4-4.4h13.2c2.4,0,4.4,2,4.4,4.4
	C780.1,323.5,778.2,325.5,775.7,325.5z"/>
<path fill="#F5F5F7" d="M775.7,499.3c-2.4,0-4.4-2-4.4-4.4V321.1c0-2.4,2-4.4,4.4-4.4s4.4,2,4.4,4.4v173.9
	C780.1,497.3,778.2,499.3,775.7,499.3z"/>
<path fill="#F5F5F7" d="M523.4,325.5c-2.4,0-4.4-2-4.4-4.4v-17.6c0-2.4,2-4.4,4.4-4.4c2.4,0,4.4,2,4.4,4.4v17.6
	C527.8,323.5,525.8,325.5,523.4,325.5z"/>
<path fill="#F5F5F7" d="M523.4,325.5h-13.2c-2.4,0-4.4-2-4.4-4.4s2-4.4,4.4-4.4h13.2c2.4,0,4.4,2,4.4,4.4S525.8,325.5,523.4,325.5z"
	/>
<path fill="#F5F5F7" d="M510.2,499.3c-2.4,0-4.4-2-4.4-4.4V321.1c0-2.4,2-4.4,4.4-4.4c2.4,0,4.4,2,4.4,4.4v173.9
	C514.6,497.3,512.6,499.3,510.2,499.3z"/>
<path fill="#F5F5F7" d="M830,526.4H454.4c-2.4,0-4.4-2-4.4-4.4v-27.2c0-2.4,2-4.4,4.4-4.4H830c2.4,0,4.4,2,4.4,4.4V522
	C834.3,524.5,832.4,526.4,830,526.4z M458.9,517.7h366.7v-18.3H458.9V517.7z"/>
<path fill="#F5F5F7" d="M844.7,553.6H439.8c-2.4,0-4.4-2-4.4-4.4V522c0-2.4,2-4.4,4.4-4.4h404.8c2.4,0,4.4,2,4.4,4.4v27.2
	C849,551.6,847.1,553.6,844.7,553.6z M444.2,544.8h396.1v-18.3H444.2V544.8L444.2,544.8z"/>
<path fill="#F5F5F7" d="M859.4,580.7H418.2c-2.4,0-4.4-2-4.4-4.4v-27.2c0-2.4,2-4.4,4.4-4.4h441.1c2.4,0,4.4,2,4.4,4.4v27.2
	C863.7,578.8,861.8,580.7,859.4,580.7z M422.6,571.9h432.3v-18.3H422.6V571.9L422.6,571.9z"/>
<path fill="#F5F5F7" d="M873.9,607.9H403.1c-2.4,0-4.4-2-4.4-4.4v-27.2c0-2.4,2-4.4,4.4-4.4H874c2.4,0,4.4,2,4.4,4.4v27.2
	C878.4,605.9,876.4,607.9,873.9,607.9L873.9,607.9z M407.5,599h462.1v-18.3H407.5V599z"/>
<path fill="#F5F5F7" d="M844.7,553.6c-2.4,0-4.4-2-4.4-4.4V522c0-2.4,2-4.4,4.4-4.4s4.4,2,4.4,4.4v27.2
	C849,551.6,847.1,553.6,844.7,553.6z"/>
<path fill="#F5F5F7" d="M913,595.4h-39.1c-2.4,0-4.4-2-4.4-4.4V303.5c0-2.4,2-4.4,4.4-4.4h59.2c2.4,0,4.4,2,4.4,4.4v17.6
	c0,2.4-2,4.4-4.4,4.4c-2.4,0-4.4-2-4.4-4.4V308h-50.5v278.8h34.6c2.4,0,4.4,2,4.4,4.4C917.4,593.5,915.5,595.4,913,595.4z"/>
<path fill="#F5F5F7" d="M189.5,595.4H14.9c-2.4,0-4.4-2-4.4-4.4V321.1c0-2.4,2-4.4,4.4-4.4h174.5c2.4,0,4.4,2,4.4,4.4v270
	C193.9,593.5,191.9,595.4,189.5,595.4z M19.3,586.6h165.8V325.5H19.3V586.6z"/>
<path fill="#F5F5F7" d="M169.3,325.5c-2.4,0-4.4-2-4.4-4.4v-30.8H39.5v30.8c0,2.4-2,4.4-4.4,4.4c-2.4,0-4.4-2-4.4-4.4v-35.2
	c0-2.4,2-4.4,4.4-4.4h134.3c2.4,0,4.4,2,4.4,4.4v35.2C173.7,323.5,171.8,325.5,169.3,325.5z"/>
<path fill="#F5F5F7" d="M127.7,426.4H80.7c-1.6,0-3-0.9-3.8-2.2l-23.5-40.7c-0.8-1.4-0.8-3,0-4.4l23.5-40.7c0.8-1.4,2.3-2.2,3.8-2.2
	h47.1c1.6,0,3,0.9,3.8,2.2l23.5,40.7c0.8,1.4,0.8,3,0,4.4l-23.5,40.7C130.8,425.5,129.3,426.4,127.7,426.4z M83.2,417.6h41.9
	l21-36.4l-21-36.4H83.2l-21,36.4L83.2,417.6z"/>
<path fill="#F5F5F7" d="M104.2,426.4c-2.4,0-4.4-2-4.4-4.4v-81.5c0-2.4,2-4.4,4.4-4.4s4.4,2,4.4,4.4V422
	C108.6,424.4,106.6,426.4,104.2,426.4z"/>
<path fill="#F5F5F7" d="M151.3,385.7H57.1c-2.4,0-4.4-2-4.4-4.4s2-4.4,4.4-4.4h94.1c2.4,0,4.4,2,4.4,4.4S153.7,385.7,151.3,385.7z"
	/>
<path fill="#F5F5F7" d="M140.6,367.1H67.9c-2.4,0-4.4-2-4.4-4.4c0-2.4,2-4.4,4.4-4.4h72.7c2.4,0,4.4,2,4.4,4.4
	C144.9,365.1,143,367.1,140.6,367.1z"/>
<path fill="#F5F5F7" d="M140.6,402.8H67.9c-2.4,0-4.4-2-4.4-4.4c0-2.4,2-4.4,4.4-4.4h72.7c2.4,0,4.4,2,4.4,4.4
	C145,400.8,143,402.8,140.6,402.8z"/>
<path fill="#F5F5F7" d="M167.4,543.5H34.9c-2.4,0-4.4-2-4.4-4.4v-61.7c0-2.4,2-4.4,4.4-4.4h132.5c2.4,0,4.4,2,4.4,4.4v61.7
	C171.8,541.6,169.9,543.5,167.4,543.5z M39.3,534.8H163V482H39.3V534.8z"/>
<path fill="#F5F5F7" d="M167.4,512.8H34.9c-2.4,0-4.4-2-4.4-4.4c0-2.4,2-4.4,4.4-4.4h132.5c2.4,0,4.4,2,4.4,4.4
	C171.8,510.8,169.9,512.8,167.4,512.8z"/>
<path fill="#F5F5F7" d="M69.1,543.5c-2.4,0-4.4-2-4.4-4.4v-61.7c0-2.4,2-4.4,4.4-4.4s4.4,2,4.4,4.4v61.7
	C73.6,541.6,71.6,543.5,69.1,543.5z"/>
<path fill="#F5F5F7" d="M133.2,543.5c-2.4,0-4.4-2-4.4-4.4v-61.7c0-2.4,2-4.4,4.4-4.4s4.4,2,4.4,4.4v61.7
	C137.6,541.6,135.6,543.5,133.2,543.5z"/>
<path fill="#F5F5F7" d="M101.2,543.5c-2.4,0-4.4-2-4.4-4.4v-61.7c0-2.4,2-4.4,4.4-4.4c2.4,0,4.4,2,4.4,4.4v61.7
	C105.5,541.6,103.6,543.5,101.2,543.5z"/>
<path fill="#F5F5F7" d="M364,595.4H189.5c-2.4,0-4.4-2-4.4-4.4V321.1c0-2.4,2-4.4,4.4-4.4H364c2.4,0,4.4,2,4.4,4.4v270
	C368.5,593.5,366.5,595.4,364,595.4z M193.9,586.6h165.8V325.5H193.9V586.6z"/>
<path fill="#F5F5F7" d="M343.9,325.5c-2.4,0-4.4-2-4.4-4.4v-30.8H214.1v30.8c0,2.4-2,4.4-4.4,4.4c-2.4,0-4.4-2-4.4-4.4v-35.2
	c0-2.4,2-4.4,4.4-4.4h134.3c2.4,0,4.4,2,4.4,4.4v35.2C348.2,323.5,346.3,325.5,343.9,325.5z"/>
<path fill="#F5F5F7" d="M302.3,426.4h-47.1c-1.6,0-3-0.9-3.8-2.2l-23.5-40.7c-0.8-1.4-0.8-3,0-4.4l23.5-40.7
	c0.8-1.4,2.3-2.2,3.8-2.2h47.1c1.6,0,3,0.9,3.8,2.2l23.5,40.7c0.8,1.4,0.8,3,0,4.4l-23.5,40.7C305.3,425.5,303.8,426.4,302.3,426.4z
	 M257.8,417.6h41.9l21-36.4l-21-36.4h-41.9l-21,36.4L257.8,417.6z"/>
<path fill="#F5F5F7" d="M278.8,426.4c-2.4,0-4.4-2-4.4-4.4v-81.5c0-2.4,2-4.4,4.4-4.4s4.4,2,4.4,4.4V422
	C283.2,424.4,281.2,426.4,278.8,426.4z"/>
<path fill="#F5F5F7" d="M325.8,385.7h-94.1c-2.4,0-4.4-2-4.4-4.4s2-4.4,4.4-4.4h94.1c2.4,0,4.4,2,4.4,4.4S328.2,385.7,325.8,385.7z"
	/>
<path fill="#F5F5F7" d="M315.1,367.1h-72.7c-2.4,0-4.4-2-4.4-4.4c0-2.4,2-4.4,4.4-4.4h72.7c2.4,0,4.4,2,4.4,4.4
	C319.5,365.1,317.6,367.1,315.1,367.1L315.1,367.1z"/>
<path fill="#F5F5F7" d="M315.1,402.8h-72.7c-2.4,0-4.4-2-4.4-4.4c0-2.4,2-4.4,4.4-4.4h72.7c2.4,0,4.4,2,4.4,4.4
	C319.6,400.8,317.6,402.8,315.1,402.8L315.1,402.8z"/>
<path fill="#F5F5F7" d="M342,543.5H209.5c-2.4,0-4.4-2-4.4-4.4v-61.7c0-2.4,2-4.4,4.4-4.4H342c2.4,0,4.4,2,4.4,4.4v61.7
	C346.4,541.6,344.4,543.5,342,543.5z M213.9,534.8h123.7V482H213.9V534.8z"/>
<path fill="#F5F5F7" d="M342,512.8H209.5c-2.4,0-4.4-2-4.4-4.4c0-2.4,2-4.4,4.4-4.4H342c2.4,0,4.4,2,4.4,4.4
	C346.4,510.8,344.4,512.8,342,512.8z"/>
<path fill="#F5F5F7" d="M243.7,543.5c-2.4,0-4.4-2-4.4-4.4v-61.7c0-2.4,2-4.4,4.4-4.4c2.4,0,4.4,2,4.4,4.4v61.7
	C248.1,541.6,246.1,543.5,243.7,543.5z"/>
<path fill="#F5F5F7" d="M307.8,543.5c-2.4,0-4.4-2-4.4-4.4v-61.7c0-2.4,2-4.4,4.4-4.4s4.4,2,4.4,4.4v61.7
	C312.2,541.6,310.2,543.5,307.8,543.5z"/>
<path fill="#F5F5F7" d="M275.7,543.5c-2.4,0-4.4-2-4.4-4.4v-61.7c0-2.4,2-4.4,4.4-4.4c2.4,0,4.4,2,4.4,4.4v61.7
	C280.1,541.6,278.1,543.5,275.7,543.5z"/>
<path fill="#F5F5F7" d="M403.1,595.4H364c-2.4,0-4.4-2-4.4-4.4s2-4.4,4.4-4.4h34.6V307.8h-50.5V321c0,2.4-2,4.4-4.4,4.4
	s-4.4-2-4.4-4.4v-17.6c0-2.4,2-4.4,4.4-4.4H403c2.4,0,4.4,2,4.4,4.4V591C407.5,593.5,405.5,595.4,403.1,595.4L403.1,595.4z"/>
<path fill="#F5F5F7" d="M690.9,498.1h-95.7c-1.6,0-3-0.9-3.8-2.2l-47.8-82.8c-0.8-1.4-0.8-3,0-4.4l47.8-82.8
	c0.8-1.4,2.3-2.2,3.8-2.2h95.6c1.6,0,3,0.9,3.8,2.2l47.8,82.8c0.8,1.4,0.8,3,0,4.4L694.7,496C693.8,497.3,692.5,498.1,690.9,498.1
	L690.9,498.1z M597.8,489.4h90.6l45.2-78.4l-45.2-78.4h-90.6l-45.2,78.4L597.8,489.4L597.8,489.4z"/>
<path fill="#F5F5F7" d="M606,498.1c-2.4,0-4.4-2-4.4-4.4V328.1c0-2.4,2-4.4,4.4-4.4c2.4,0,4.4,2,4.4,4.4v165.7
	C610.4,496.2,608.5,498.1,606,498.1z"/>
<path fill="#F5F5F7" d="M679.3,498.1c-2.4,0-4.4-2-4.4-4.4V328.1c0-2.4,2-4.4,4.4-4.4c2.4,0,4.4,2,4.4,4.4v165.7
	C683.8,496.2,681.8,498.1,679.3,498.1z"/>
<path fill="#F5F5F7" d="M606,415.4h-58.6c-2.4,0-4.4-2-4.4-4.4s2-4.4,4.4-4.4H606c2.4,0,4.4,2,4.4,4.4
	C610.4,413.4,608.5,415.4,606,415.4z"/>
<path fill="#F5F5F7" d="M738.6,415.4h-59.3c-2.4,0-4.4-2-4.4-4.4s2-4.4,4.4-4.4h59.3c2.4,0,4.4,2,4.4,4.4S741.1,415.4,738.6,415.4z"
	/>
<path fill="#F5F5F7" d="M606,377.6h-36.8c-2.4,0-4.4-2-4.4-4.4s2-4.4,4.4-4.4H606c2.4,0,4.4,2,4.4,4.4S608.5,377.6,606,377.6z"/>
<path fill="#F5F5F7" d="M716.9,377.6h-35.5c-2.4,0-4.4-2-4.4-4.4s2-4.4,4.4-4.4h35.5c2.4,0,4.4,2,4.4,4.4S719.3,377.6,716.9,377.6z"
	/>
<path fill="#F5F5F7" d="M606,450.1h-36.8c-2.4,0-4.4-2-4.4-4.4s2-4.4,4.4-4.4H606c2.4,0,4.4,2,4.4,4.4
	C610.4,448.1,608.5,450.1,606,450.1z"/>
<path fill="#F5F5F7" d="M716.9,450.1h-37.5c-2.4,0-4.4-2-4.4-4.4s2-4.4,4.4-4.4h37.5c2.4,0,4.4,2,4.4,4.4S719.3,450.1,716.9,450.1z"
	/>
<path fill="#F5F5F7" d="M643.9,428.7c-5.4,0-9.8-4.4-9.8-9.8s4.4-9.8,9.8-9.8c5.4,0,9.8,4.4,9.8,9.8S649.3,428.7,643.9,428.7z
	 M643.9,417.9c-0.5,0-1,0.4-1,1c0,0.5,0.4,1,1,1c0.5,0,1-0.4,1-1C644.9,418.3,644.4,417.9,643.9,417.9z"/>
<path fill="#F5F5F7" d="M513.9,216.4c0-1.5,1.2-2.7,2.7-2.7h0.5c1.3,0,2.1,0.6,2.8,1.6l10.4,13.7v-12.8c0-1.5,1.2-2.7,2.7-2.7
	c1.5,0,2.7,1.2,2.7,2.7v19.6c0,1.5-1.2,2.7-2.7,2.7h-0.2c-1.3,0-2.1-0.6-2.8-1.6l-10.9-14.2V236c0,1.5-1.2,2.7-2.7,2.7
	c-1.5,0-2.7-1.2-2.7-2.7L513.9,216.4L513.9,216.4z M540.6,226.2c0-7,5.6-12.8,13.1-12.8c7.6,0,13,5.6,13,12.7v0.1
	c0,7-5.6,12.8-13.1,12.8C546,238.8,540.6,233.2,540.6,226.2z M561.2,226.2c0-4.3-3.1-7.8-7.5-7.8s-7.4,3.5-7.4,7.6v0.1
	c0,4.3,3.1,7.7,7.5,7.7S561.2,230.4,561.2,226.2z M571.6,216.5c0-1.5,1.2-2.7,2.7-2.7h6.9c7.7,0,13.1,5.3,13.1,12.2v0.1
	c0,6.9-5.4,12.3-13.1,12.3h-6.9c-1.5,0-2.7-1.2-2.7-2.7C571.6,235.8,571.6,216.5,571.6,216.5z M581.2,233.5c4.4,0,7.4-3,7.4-7.4
	v-0.1c0-4.3-3-7.5-7.4-7.5H577v14.8L581.2,233.5L581.2,233.5z M599.1,235.7v-19.2c0-1.5,1.2-2.7,2.7-2.7h13.6c1.3,0,2.4,1.1,2.4,2.4
	s-1.1,2.4-2.4,2.4h-10.9v5h9.5c1.3,0,2.4,1.1,2.4,2.4c0,1.3-1.1,2.4-2.4,2.4h-9.4v5.2h11.1c1.3,0,2.4,1.1,2.4,2.4
	c0,1.3-1.1,2.4-2.4,2.4h-13.8C600.3,238.5,599.1,237.3,599.1,235.7z M622.2,235.9c-0.6-0.4-1-1.2-1-2c0-1.4,1.1-2.5,2.5-2.5
	c0.7,0,1.2,0.3,1.6,0.5c1.8,1.4,3.9,2.3,6.3,2.3c2.3,0,3.6-0.9,3.6-2.3v-0.1c0-1.4-0.9-2.1-4.9-3.1c-4.9-1.3-8.2-2.6-8.2-7.6v-0.1
	c0-4.4,3.6-7.5,8.6-7.5c3,0,5.6,0.8,7.8,2.2c0.6,0.3,1.2,1.1,1.2,2.2c0,1.4-1.1,2.5-2.5,2.5c-0.5,0-1-0.2-1.4-0.3
	c-1.8-1-3.5-1.6-5.2-1.6c-2.1,0-3.1,1-3.1,2.2v0.1c0,1.6,1,2.2,5.3,3.2c5,1.3,7.8,3.1,7.8,7.4v0.1c0,4.9-3.7,7.6-9,7.6
	C628.3,238.8,625,237.8,622.2,235.9L622.2,235.9z M644.2,226.2c0-7,5.3-12.8,12.9-12.8c3.7,0,6.2,1,8.2,2.5c0.5,0.4,1,1.2,1,2.2
	c0,1.5-1.2,2.6-2.7,2.6c-0.8,0-1.2-0.3-1.6-0.5c-1.5-1.1-3.1-1.7-5-1.7c-4.2,0-7.1,3.5-7.1,7.6v0.1c0,4.3,3,7.7,7.1,7.7
	c2.3,0,3.8-0.7,5.4-1.9c0.4-0.3,1-0.6,1.6-0.6c1.4,0,2.5,1.1,2.5,2.5c0,0.9-0.4,1.5-1,1.9c-2.3,1.9-4.9,3.1-8.8,3.1
	C649.6,238.8,644.2,233.3,644.2,226.2L644.2,226.2z M671.3,216.3c0-1.5,1.2-2.7,2.7-2.7c1.5,0,2.7,1.2,2.7,2.7v7.2h10v-7.2
	c0-1.5,1.2-2.7,2.7-2.7c1.5,0,2.7,1.2,2.7,2.7V236c0,1.5-1.2,2.7-2.7,2.7c-1.5,0-2.7-1.2-2.7-2.7v-7.4h-10v7.4
	c0,1.5-1.2,2.7-2.7,2.7s-2.7-1.2-2.7-2.7V216.3z M696.9,226.2c0-7,5.6-12.8,13.1-12.8c7.6,0,13,5.6,13,12.7v0.1
	c0,7-5.6,12.8-13.1,12.8C702.4,238.8,696.9,233.2,696.9,226.2z M717.5,226.2c0-4.3-3.1-7.8-7.5-7.8s-7.4,3.5-7.4,7.6v0.1
	c0,4.3,3.1,7.7,7.5,7.7S717.5,230.4,717.5,226.2z M726.8,226.2c0-7,5.6-12.8,13.1-12.8c7.6,0,13,5.6,13,12.7v0.1
	c0,7-5.6,12.8-13.1,12.8C732.3,238.8,726.8,233.2,726.8,226.2z M747.3,226.2c0-4.3-3.1-7.8-7.5-7.8c-4.3,0-7.4,3.5-7.4,7.6v0.1
	c0,4.3,3.1,7.7,7.5,7.7S747.3,230.4,747.3,226.2z M757.8,216.3c0-1.5,1.2-2.7,2.7-2.7c1.5,0,2.7,1.2,2.7,2.7v17.2h10
	c1.4,0,2.4,1.1,2.4,2.4s-1.1,2.4-2.4,2.4h-12.8c-1.5,0-2.7-1.2-2.7-2.7L757.8,216.3L757.8,216.3z"/>
<path fill="#F5F5F7" d="M816.3,283.6H465.2c-2.4,0-4.4-2-4.4-4.4c0-2.4,2-4.4,4.4-4.4h351.1c2.4,0,4.4,2,4.4,4.4
	C820.7,281.6,818.7,283.6,816.3,283.6z"/>
<path fill="#F5F5F7" d="M209.5,307.9h-40.1c-2.4,0-4.4-2-4.4-4.4s2-4.4,4.4-4.4h40.1c2.4,0,4.4,2,4.4,4.4S211.9,307.9,209.5,307.9z"
	/>
<path fill="#F5F5F7" d="M1107.7,307.9h-40.1c-2.4,0-4.4-2-4.4-4.4s2-4.4,4.4-4.4h40.1c2.4,0,4.4,2,4.4,4.4
	S1110.1,307.9,1107.7,307.9z"/>
</svg>
